<?xml version="1.0" standalone="no"?>
<!DOCTYPE svg PUBLIC "-//W3C//DTD SVG 20010904//EN"
 "http://www.w3.org/TR/2001/REC-SVG-20010904/DTD/svg10.dtd">
<svg version="1.0" xmlns="http://www.w3.org/2000/svg"
 width="512.000000pt" height="512.000000pt" viewBox="0 0 512.000000 512.000000"
 preserveAspectRatio="xMidYMid meet">

<g transform="translate(0.000000,512.000000) scale(0.100000,-0.100000)"
fill="#000000" stroke="none">
<path d="M2392 4899 c-548 -41 -1062 -271 -1460 -653 -313 -300 -555 -724
-655 -1151 -43 -183 -60 -331 -59 -540 0 -380 80 -714 250 -1050 354 -699
1014 -1165 1802 -1272 148 -20 438 -20 585 0 685 94 1274 460 1654 1027 721
1076 430 2525 -654 3254 -208 140 -512 271 -766 331 -210 49 -488 70 -697 54z
m343 -210 c949 -81 1732 -778 1919 -1709 156 -775 -136 -1584 -752 -2081 -416
-336 -971 -511 -1489 -470 -1074 85 -1901 912 -1984 1983 -27 359 48 748 210
1080 384 791 1227 1272 2096 1197z"/>
<path d="M1770 2810 c-30 -16 -91 -41 -135 -56 -97 -32 -230 -37 -311 -12 -62
20 -94 14 -129 -22 -34 -35 -37 -88 -8 -127 62 -84 324 -100 524 -33 178 60
239 103 239 170 0 52 -13 76 -50 95 -41 21 -67 18 -130 -15z"/>
<path d="M3218 2824 c-36 -19 -48 -43 -48 -94 0 -67 61 -110 239 -170 199 -67
462 -51 523 31 30 40 26 94 -8 131 -27 28 -33 29 -84 25 -30 -3 -77 -11 -105
-17 -95 -21 -243 9 -377 76 -74 37 -99 41 -140 18z"/>
<path d="M2416 1850 c-229 -36 -460 -157 -606 -317 -68 -75 -90 -110 -90 -150
0 -67 85 -122 141 -93 13 7 55 46 93 87 124 134 272 219 440 254 287 59 567
-33 772 -254 38 -41 80 -80 93 -87 56 -29 141 26 141 93 0 40 -22 75 -89 150
-122 132 -315 246 -497 293 -112 28 -298 39 -398 24z"/>
</g>
</svg>
