<?xml version="1.0" standalone="no"?>
<!DOCTYPE svg PUBLIC "-//W3C//DTD SVG 20010904//EN"
 "http://www.w3.org/TR/2001/REC-SVG-20010904/DTD/svg10.dtd">
<svg version="1.0" xmlns="http://www.w3.org/2000/svg"
 width="512.000000pt" height="512.000000pt" viewBox="0 0 512.000000 512.000000"
 preserveAspectRatio="xMidYMid meet">

<g transform="translate(0.000000,512.000000) scale(0.100000,-0.100000)"
fill="#b6b6b6" stroke="none">
<path d="M1985 4471 c-11 -5 -29 -19 -40 -31 -18 -20 -20 -39 -23 -206 l-3
-184 -599 0 c-420 0 -606 -3 -624 -11 -60 -28 -71 -122 -20 -170 22 -20 38
-24 104 -27 l78 -4 6 -67 c4 -36 45 -644 91 -1351 47 -707 90 -1309 96 -1338
28 -141 149 -302 275 -369 140 -73 47 -68 1234 -68 1187 0 1094 -5 1234 69
125 65 247 228 275 368 6 29 49 631 96 1338 46 707 87 1315 91 1351 l6 67 78
4 c66 3 82 7 104 27 51 48 40 142 -20 170 -18 8 -204 11 -624 11 l-599 0 -3
185 -3 185 -28 27 -27 28 -568 2 c-312 1 -576 -2 -587 -6z m1000 -311 l0 -105
-425 0 -425 0 -3 94 c-1 52 0 101 2 108 5 11 83 13 428 11 l423 -3 0 -105z
m1058 -362 c-2 -24 -42 -621 -88 -1328 -47 -707 -89 -1310 -95 -1340 -22 -115
-125 -228 -236 -261 -41 -12 -221 -14 -1069 -14 -974 0 -1022 1 -1070 19 -115
43 -204 144 -225 256 -6 30 -48 633 -95 1340 -46 707 -86 1304 -88 1328 l-5
42 1488 0 1488 0 -5 -42z"/>
<path d="M1973 3398 c-11 -5 -28 -24 -37 -42 -16 -28 -17 -117 -14 -1023 l3
-991 24 -26 c48 -51 142 -40 170 20 8 18 11 308 11 1020 l0 996 -29 29 c-32
31 -84 38 -128 17z"/>
<path d="M3019 3381 l-29 -29 0 -996 c0 -712 3 -1002 11 -1020 28 -60 122 -71
170 -20 l24 26 3 991 c3 904 2 995 -13 1023 -32 61 -117 74 -166 25z"/>
</g>
</svg>
